<svg xmlns:x="http://ns.adobe.com/Extensibility/1.0/" xmlns:i="http://ns.adobe.com/AdobeIllustrator/10.0/" xmlns:graph="http://ns.adobe.com/Graphs/1.0/" xmlns="http://www.w3.org/2000/svg" xmlns:xlink="http://www.w3.org/1999/xlink" xmlns:a="http://ns.adobe.com/AdobeSVGViewerExtensions/3.0/" version="1.1" x="0px" y="0px" viewBox="0 0 100 100" enable-background="new 0 0 100 100" xml:space="preserve"><g><g><path d="M71.209,43.969c7.576,3.646,9.749,5.499,8.792,9.549c-0.787,3.337-4.711,29.524-14.56,30.797    c-4.067,0.525-6.949-1.496-6.949-7.959c0-5.646,7.869-7.776,7.869-14.261c0-6.485-6.116-7.441-5.69-15.205    C60.928,42.201,64.763,40.867,71.209,43.969z"></path><path d="M66.908,36.307c0.195,2.641-1.231,4.904-3.188,5.051c-1.957,0.148-3.703-1.875-3.896-4.518    c-0.196-2.645,1.23-4.907,3.189-5.056C64.968,31.635,66.714,33.659,66.908,36.307z"></path><path d="M72.119,37.504c-0.231,1.237-1.164,2.093-2.076,1.922c-0.916-0.177-1.468-1.322-1.234-2.555    c0.231-1.241,1.164-2.099,2.077-1.924C71.8,35.122,72.354,36.268,72.119,37.504z"></path><path d="M75.528,39.694c-0.347,1.028-1.246,1.647-2.007,1.389c-0.761-0.262-1.097-1.309-0.75-2.334    c0.348-1.034,1.246-1.652,2.007-1.393C75.54,37.616,75.877,38.664,75.528,39.694z"></path><path d="M78.421,42.307c-0.41,0.841-1.245,1.269-1.866,0.962c-0.621-0.312-0.791-1.244-0.381-2.082s1.248-1.267,1.869-0.958    C78.662,40.537,78.834,41.471,78.421,42.307z"></path><path d="M81.079,44.616c-0.289,0.648-0.91,0.994-1.392,0.777c-0.478-0.218-0.63-0.92-0.341-1.566    c0.291-0.647,0.914-0.992,1.393-0.777C81.217,43.269,81.37,43.971,81.079,44.616z"></path><path d="M28.568,43.969c-7.576,3.646-9.751,5.499-8.794,9.549c0.787,3.337,4.713,29.524,14.561,30.797    c4.066,0.525,6.95-1.496,6.95-7.959c0-5.646-7.871-7.776-7.871-14.261c0-6.485,6.118-7.441,5.692-15.205    C38.849,42.201,35.012,40.867,28.568,43.969z"></path><path d="M32.869,36.307c-0.198,2.641,1.229,4.904,3.186,5.051c1.958,0.148,3.704-1.875,3.898-4.518    c0.194-2.645-1.231-4.907-3.189-5.056C34.807,31.635,33.063,33.659,32.869,36.307z"></path><path d="M27.658,37.504c0.231,1.237,1.162,2.093,2.074,1.922c0.917-0.177,1.468-1.322,1.234-2.555    c-0.231-1.241-1.164-2.099-2.078-1.924C27.975,35.122,27.421,36.268,27.658,37.504z"></path><path d="M24.248,39.694c0.347,1.028,1.244,1.647,2.005,1.389c0.763-0.262,1.099-1.309,0.751-2.334    c-0.347-1.034-1.248-1.652-2.009-1.393C24.237,37.616,23.897,38.664,24.248,39.694z"></path><path d="M21.354,42.307c0.41,0.841,1.246,1.269,1.869,0.962c0.619-0.312,0.791-1.244,0.38-2.082    c-0.411-0.838-1.25-1.267-1.869-0.958C21.115,40.537,20.943,41.471,21.354,42.307z"></path><path d="M19.251,45.432c0.289,0.647,0.912,0.994,1.39,0.777c0.478-0.218,0.63-0.92,0.343-1.566    c-0.291-0.647-0.914-0.992-1.392-0.777C19.114,44.083,18.96,44.786,19.251,45.432z"></path></g><path d="M53.743,20.077c0.571-0.823,1.481-1.175,2.029-0.783c0.549,0.388,0.528,1.37-0.044,2.195l-4.077,5.837   c4.17,0,8.337,0,11.937,0c0-7.483-6.01-13.548-13.421-13.548c-7.414,0-13.425,6.065-13.425,13.548c3.411,0,7.609,0,11.94,0   L53.743,20.077z"></path><path d="M87.691,5.03H12.64C8.421,5.03,5,8.483,5,12.741v74.548C5,91.547,8.421,95,12.64,95h75.052c4.219,0,7.64-3.453,7.64-7.711   V12.741C95.331,8.483,91.91,5.03,87.691,5.03z M90.125,82.994c0,3.766-3.025,6.821-6.759,6.821H16.963   c-3.73,0-6.759-3.056-6.759-6.821V17.037c0-3.767,3.029-6.822,6.759-6.822h66.403c3.733,0,6.759,3.055,6.759,6.822V82.994z"></path></g></svg>