<svg xmlns="http://www.w3.org/2000/svg" xmlns:xlink="http://www.w3.org/1999/xlink" version="1.1" x="0px" y="0px" viewBox="0 0 100 100" enable-background="new 0 0 100 100" xml:space="preserve"><g><path fill="#000000" d="M13.663,63.831c-0.531,0-1.06-0.21-1.454-0.626c-4.321-4.568-6.605-9.96-6.605-15.593   c0-14.913,16.279-27.046,36.289-27.046c15.82,0,29.7,7.514,34.539,18.698c0.438,1.014-0.028,2.191-1.042,2.629   c-1.017,0.437-2.19-0.028-2.63-1.042c-4.148-9.589-16.841-16.286-30.867-16.286c-17.804,0-32.289,10.338-32.289,23.046   c0,4.591,1.906,9.033,5.511,12.845c0.759,0.802,0.724,2.068-0.079,2.827C14.65,63.649,14.156,63.831,13.663,63.831z"></path><path fill="#000000" d="M42.8,74.657c-0.095,0-0.197,0-0.307,0l-0.6-0.001c-8.766,0-17.224-2.348-23.815-6.611   c-0.927-0.601-1.193-1.839-0.593-2.766c0.6-0.929,1.837-1.193,2.766-0.594c5.952,3.851,13.638,5.971,21.643,5.971l0.607,0.001   c1.125,0,1.125,0.002,2.059-0.133l0.766-0.108c1.094-0.163,2.104,0.61,2.257,1.704c0.152,1.094-0.61,2.104-1.705,2.257   l-0.749,0.106C44.049,74.64,43.878,74.657,42.8,74.657z"></path><path fill="#000000" d="M6.063,73.142c-1.423,0-3.015-0.28-3.42-1.838c-0.221-0.846-0.076-2.049,1.863-2.973   c4.875-2.322,7.508-7.5,7.534-7.552c0.493-0.989,1.697-1.388,2.683-0.895c0.988,0.494,1.388,1.696,0.894,2.684   c-0.09,0.181-1.617,3.183-4.554,5.982c2.812-0.599,5.636-1.551,6.096-2.459c0.137-1.097,1.13-1.831,2.221-1.688   c1.096,0.137,1.861,1.185,1.724,2.28c-0.687,5.487-13.641,6.396-13.771,6.404C6.955,73.112,6.517,73.142,6.063,73.142z"></path><path fill="#000000" d="M96.999,76.188c-1.563,0-4.5-0.801-10.473-3.393c-1.014-0.44-1.479-1.618-1.039-2.631   c0.439-1.014,1.617-1.479,2.631-1.039c1.183,0.514,2.476,1.039,3.701,1.506c-2.331-2.859-2.643-4.493-2.559-5.305   c0.113-1.099,1.099-1.908,2.194-1.784c1.003,0.104,1.756,0.931,1.794,1.91c0.074,0.265,0.691,2.04,4.638,5.799   c1.492,1.421,1.864,2.722,1.106,3.864C98.641,75.647,98.282,76.188,96.999,76.188z"></path><path fill="#000000" d="M67.93,80.311c-4.686,0-9.188-1.062-13.063-3.122c-5.581-2.97-9.202-7.646-10.198-13.169   c-2.024-11.214,7.667-22.384,21.602-24.9c1.204-0.216,2.423-0.366,3.624-0.444c1.108-0.073,2.055,0.763,2.127,1.865   c0.071,1.102-0.764,2.054-1.865,2.126c-1.053,0.069-2.121,0.2-3.176,0.39C55.217,45.18,46.973,54.266,48.605,63.31   c0.774,4.291,3.665,7.966,8.141,10.348c4.634,2.467,10.375,3.249,16.155,2.204c5.04-0.909,9.688-3.178,13.086-6.39   c0.802-0.758,2.068-0.723,2.828,0.08c0.758,0.804,0.723,2.069-0.08,2.828c-3.958,3.738-9.328,6.373-15.124,7.418   C71.708,80.141,69.804,80.311,67.93,80.311z"></path><path fill="#000000" d="M91.262,67.997c-0.334,0-0.672-0.083-0.983-0.26c-0.961-0.544-1.299-1.764-0.755-2.726   c1.714-3.028,2.321-6.28,1.757-9.404c-1.205-6.68-7.49-11.7-16.013-12.789c-1.095-0.14-1.87-1.142-1.729-2.237   c0.14-1.096,1.138-1.865,2.237-1.73c10.289,1.314,17.92,7.613,19.44,16.046c0.733,4.054-0.032,8.233-2.212,12.085   C92.637,67.632,91.959,67.997,91.262,67.997z"></path></g></svg>