<svg xmlns:x="http://ns.adobe.com/Extensibility/1.0/" xmlns:i="http://ns.adobe.com/AdobeIllustrator/10.0/" xmlns:graph="http://ns.adobe.com/Graphs/1.0/" xmlns="http://www.w3.org/2000/svg" xmlns:xlink="http://www.w3.org/1999/xlink" version="1.1" x="0px" y="0px" viewBox="0 0 100 100" enable-background="new 0 0 100 100" xml:space="preserve"><metadata><sfw xmlns="http://ns.adobe.com/SaveForWeb/1.0/"><slices></slices><sliceSourceBounds width="1447.2" height="1444.2" x="1" y="-1446.1" bottomLeftOrigin="true"></sliceSourceBounds></sfw></metadata><path d="M97.9,50C97.9,23.6,76.4,2.1,50,2.1C23.6,2.1,2.1,23.6,2.1,50c0,26.4,21.5,47.9,47.9,47.9C76.4,97.9,97.9,76.4,97.9,50z   M7.1,50C7.1,26.4,26.4,7.1,50,7.1c23.6,0,42.9,19.2,42.9,42.9c0,11.3-4.4,21.6-11.5,29.2c-6.7-4.6-12.6-7.7-15.3-9.1v-5.3  c0.6-1.4,1.2-2.9,1.6-4.6c1.9-0.8,3.3-3,4.6-7.5c1.2-4.1,1.1-7-0.3-8.7c1.4-7.9,0.8-13.7-2-17.3c-1.4-1.9-3.1-2.7-4.2-3.1  c-0.8-1.1-2.4-3-5.1-4.5c-3.4-2-7.2-2.8-11.4-2.5c-1.6,0.1-3.1,0.4-4.7,0.9c0,0,0,0-0.1,0c-1.7,0.6-3.3,1.4-4.9,2.5  c-1.8,1.2-3.5,2.5-4.9,4.1c-2.8,2.9-4.7,6.2-5.5,9.7c-0.8,2.9-0.8,5.7-0.2,8.5c-0.2,0.2-0.5,0.4-0.7,0.7c-1.4,1.7-1.6,4.5-0.4,8.7  c0.8,2.8,1.8,5.6,3.6,7c0.5,2.6,1.4,5,2.5,7.1v4.3c-2.7,1.4-8.6,4.5-15.3,9.1C11.5,71.6,7.1,61.3,7.1,50z M37.1,74.1  c1.1-0.5,1.8-1.7,1.8-2.9v-6c0-0.4-0.1-0.9-0.3-1.3c-1.2-2-2-4.5-2.5-7.3c-0.2-1-0.9-1.8-1.8-2c-0.2-0.3-0.9-1.3-1.7-4.2  C32,48.2,32,47.1,32,46.5c0.7,0,1.4-0.4,1.9-1c0.5-0.7,0.7-1.6,0.4-2.4c-0.9-2.6-1.1-5.3-0.3-8.1c0.6-2.7,2-5.1,4.3-7.4  c1.2-1.3,2.5-2.4,4-3.3c0,0,0.1,0,0.1-0.1c1.2-0.9,2.5-1.5,3.8-1.9c0,0,0,0,0.1,0c1.1-0.4,2.2-0.6,3.3-0.6c3.2-0.3,6.1,0.3,8.6,1.8  c2.7,1.5,3.9,3.5,3.9,3.5c0.4,0.8,1.2,1.3,2,1.3c0,0,1,0.2,2,1.4c1.1,1.5,2.7,5.4,0.8,14.8c-0.2,1.1,0.3,2.2,1.3,2.7  c0.1,0.4,0.1,1.5-0.6,4.1c-0.6,2.3-1.2,3.4-1.5,3.9c-0.4,0-0.8,0-1.2,0.2c-0.8,0.3-1.3,1-1.5,1.9c-0.4,2.2-1,4.2-1.8,5.9  c-0.2,0.3-0.2,0.7-0.2,1.1v6.9c0,1.2,0.7,2.4,1.8,2.9c1.8,0.9,7.8,3.9,14.8,8.6C70.2,89.1,60.5,92.9,50,92.9  c-10.5,0-20.2-3.8-27.7-10.1C29.4,78,35.3,75,37.1,74.1z"></path></svg>