<svg id="Livello_1" data-name="Livello 1" xmlns="http://www.w3.org/2000/svg" viewBox="0 0 934.57 200"><title>JustFit</title><path d="M470.92,703.84q-9.81-9.47-9.81-25.42a60.48,60.48,0,0,1,.46-6.39l2.05-16.87a3.42,3.42,0,0,1,1.14-1.94,3,3,0,0,1,2.05-.8H487.1a2.31,2.31,0,0,1,1.83.8,2.2,2.2,0,0,1,.45,1.94l-2.05,17.33a17.31,17.31,0,0,0-.23,3.19q0,6.62,3.54,10.72a12.12,12.12,0,0,0,9.69,4.1,15.7,15.7,0,0,0,11.85-5,21.74,21.74,0,0,0,5.7-13l14.6-117.88a3.73,3.73,0,0,1,1-1.94,2.64,2.64,0,0,1,1.94-.79h20.29a2.3,2.3,0,0,1,1.83.79,2.2,2.2,0,0,1,.45,1.94L543.65,672q-2.28,18.47-14.94,29.87t-31.12,11.4Q480.72,713.3,470.92,703.84Z" transform="translate(-172.72 -529)"/><path d="M643.5,595.77a3.05,3.05,0,0,1,2.06-.8h20.29a2.27,2.27,0,0,1,1.82.8,2.16,2.16,0,0,1,.46,1.93l-13.68,111a3.71,3.71,0,0,1-1,1.94,2.65,2.65,0,0,1-1.94.8H631.19a2.29,2.29,0,0,1-1.82-.8,2.17,2.17,0,0,1-.46-1.94l.46-5c.15-.45.07-.76-.23-.91s-.61,0-.91.46q-7.76,9.79-21.89,9.8-11.85,0-19-6.61t-7.18-20.52c0-1.22.15-3.49.46-6.84l10-81.4a2.47,2.47,0,0,1,.91-1.93,3,3,0,0,1,2.05-.8h20.3a2.3,2.3,0,0,1,1.82.8,2.18,2.18,0,0,1,.45,1.93l-9.34,75.7a28.68,28.68,0,0,0-.23,4.1q0,13,10.94,13a13.41,13.41,0,0,0,10.61-4.9q4.21-4.9,5.13-13.34l9.34-74.56A2.5,2.5,0,0,1,643.5,595.77Z" transform="translate(-172.72 -529)"/><path d="M699.93,705.32q-9.24-7.53-9.23-20.29a29.71,29.71,0,0,1,.22-4.33l.23-1.6a3.68,3.68,0,0,1,1-1.94,2.63,2.63,0,0,1,1.94-.8h19.15a2.29,2.29,0,0,1,1.82.8,2.18,2.18,0,0,1,.46,1.94l-.23,1.14a10.39,10.39,0,0,0,3,9.12,13,13,0,0,0,9.58,3.65A13.74,13.74,0,0,0,738,689a13.48,13.48,0,0,0,4-9.92,9.55,9.55,0,0,0-3.88-8,40.87,40.87,0,0,0-8.66-5l-6.39-2.73a58,58,0,0,1-17.9-11.17q-7-6.62-6.95-19.16,0-18.22,11.4-28.84t29.64-10.6q15.74,0,24.62,7.87T772.77,623a48.88,48.88,0,0,1-.45,5.47,3.67,3.67,0,0,1-1,1.94,2.61,2.61,0,0,1-1.94.8H750.89c-1.68,0-2.51-.91-2.51-2.74l.23-1.36a11.36,11.36,0,0,0-2.4-9.12q-3.08-3.64-8.78-3.65a13,13,0,0,0-10.26,4.44,14.75,14.75,0,0,0-3.87,9.92,9.57,9.57,0,0,0,4,8.32q4,2.87,13.56,7.19a100,100,0,0,1,13.46,6.84,32.24,32.24,0,0,1,9.57,9.46,25.52,25.52,0,0,1,4.11,14.7q0,17.1-11.86,27.36t-30.78,10.26Q709.17,712.84,699.93,705.32Z" transform="translate(-172.72 -529)"/><path d="M853.82,612.87a2.64,2.64,0,0,1-1.94.79H838.2c-.61,0-1.06.39-1.36,1.14l-7.3,59.74a30.33,30.33,0,0,0-.23,4.1q0,5.48,2.51,7.76t7.52,2.05h1.6a2.24,2.24,0,0,1,1.82.8,2.15,2.15,0,0,1,.46,1.93l-2.05,17.56a3.5,3.5,0,0,1-1.14,1.94,3,3,0,0,1-2,.8h-7.53q-13.46,0-20.4-4.45t-7-16.53q0-1.59.46-6.16l8.66-69.54a1,1,0,0,0-1.14-1.14h-7.75a2.27,2.27,0,0,1-1.82-.79,2.17,2.17,0,0,1-.46-1.94l1.6-13.23a3.7,3.7,0,0,1,1-1.93,2.65,2.65,0,0,1,1.94-.8h7.75c.91,0,1.37-.38,1.37-1.14l3-25.08a3.38,3.38,0,0,1,1.14-1.94,3.05,3.05,0,0,1,2.06-.8h19.38a2.3,2.3,0,0,1,1.82.8,2.17,2.17,0,0,1,.46,1.94l-3,25.08c-.3.76,0,1.14.91,1.14h13.68a2.31,2.31,0,0,1,1.83.8,2.18,2.18,0,0,1,.45,1.93l-1.59,13.23A3.71,3.71,0,0,1,853.82,612.87Z" transform="translate(-172.72 -529)"/><path d="M969,573.88a2.67,2.67,0,0,1-1.94.8H919.37a1,1,0,0,0-1.14,1.14l-5.48,43.09a1,1,0,0,0,1.14,1.14h28.05a2.27,2.27,0,0,1,1.82.8,2.16,2.16,0,0,1,.46,1.93l-2.28,17.56a2.51,2.51,0,0,1-.91,1.94,3.07,3.07,0,0,1-2.06.8h-28a1,1,0,0,0-1.14,1.14l-8,64.52a3.71,3.71,0,0,1-1,1.94,2.64,2.64,0,0,1-1.93.8h-20.3c-1.67,0-2.5-.92-2.5-2.74L895,554.61a3.42,3.42,0,0,1,1.14-1.94,3,3,0,0,1,2-.79h71.59a2.3,2.3,0,0,1,1.83.79,2.2,2.2,0,0,1,.45,1.94l-2,17.33A3.69,3.69,0,0,1,969,573.88Z" transform="translate(-172.72 -529)"/><path d="M983.89,710.68a2.17,2.17,0,0,1-.46-1.94l13.45-111a3.65,3.65,0,0,1,1-1.93,2.63,2.63,0,0,1,1.94-.8h20.52a2.3,2.3,0,0,1,1.82.8,2.19,2.19,0,0,1,.46,1.93l-13.69,111a3.69,3.69,0,0,1-1,1.94,2.65,2.65,0,0,1-1.94.8H985.71A2.27,2.27,0,0,1,983.89,710.68Zm17.89-135.55a13.83,13.83,0,0,1-3.76-10,18.12,18.12,0,0,1,5.13-13.22,17,17,0,0,1,12.66-5.25,13.43,13.43,0,0,1,9.91,3.76,13.12,13.12,0,0,1,3.77,9.69,18.93,18.93,0,0,1-5.13,13.46,16.45,16.45,0,0,1-12.43,5.47Q1005.54,579,1001.78,575.13Z" transform="translate(-172.72 -529)"/><path d="M1104.61,612.87a2.66,2.66,0,0,1-1.94.79H1089c-.61,0-1.07.39-1.37,1.14l-7.3,59.74a30.56,30.56,0,0,0-.22,4.1q0,5.48,2.5,7.76c1.68,1.52,4.18,2.2,7.53,2.05h1.59a2.28,2.28,0,0,1,1.83.8,2.17,2.17,0,0,1,.45,1.93l-2,17.56a3.38,3.38,0,0,1-1.14,1.94,3,3,0,0,1-2,.8h-7.52q-13.46,0-20.41-4.45t-6.95-16.53q0-1.59.45-6.16L1063,614.8a1,1,0,0,0-1.14-1.14h-7.76a2.28,2.28,0,0,1-1.82-.79,2.17,2.17,0,0,1-.46-1.94l1.6-13.23a3.65,3.65,0,0,1,1-1.93,2.63,2.63,0,0,1,1.93-.8h7.76c.91,0,1.36-.38,1.36-1.14l3-25.08a3.38,3.38,0,0,1,1.14-1.94,3,3,0,0,1,2.05-.8H1091a2.27,2.27,0,0,1,1.82.8,2.17,2.17,0,0,1,.46,1.94l-3,25.08c-.31.76,0,1.14.91,1.14H1105a2.27,2.27,0,0,1,1.82.8,2.16,2.16,0,0,1,.46,1.93l-1.6,13.23A3.69,3.69,0,0,1,1104.61,612.87Z" transform="translate(-172.72 -529)"/><path d="M229.3,627a86,86,0,0,0,5.17,29.49,74.77,74.77,0,0,1-10.34-2.74,69.33,69.33,0,0,1-35.57-28.58c-10.94-7.29-15.2-12.16-15.5-12.46l-.31-.31v-.61c0-.3-.3-8.2.91-13.68,1.83-7.9,4.56-14.59,8.21-19.76,4.56-6.38,10.64-12.16,14.29-14.59,1.52-1.22,4-2.74,6.39-4.56,2.73-2.13,6.08-4.26,8.81-6.39a42.56,42.56,0,0,0,10-10.34c1.21-1.52,2.13-3.95,3.34-6.38v-.3c1.22-2.44,2.13-4.87,5.78-6.09a9.47,9.47,0,0,1,7.6.31l27.36,9.73a4.06,4.06,0,0,1,1.83,2.73c.61,1.52-.61,3-.61,3.35l-4.26,12.16a3.93,3.93,0,0,1-2.13,2.74,4.56,4.56,0,0,1-3,0c1.52-4.26,3.35-9.43,5.17-14a3.79,3.79,0,0,0,0-2.74c-.3-.91-1.21,2.13-1.21,2.13-1.22,3.35-4.87,13.68-6.08,16.42-1.83,1.52-4.56.61-4.56.61,1.52-4.26,3.34-9.12,4.86-13.38a5.53,5.53,0,0,0,0-3.34c-.3-.92-1.22,2.73-1.22,2.73-1.21,3-4.56,12.77-5.47,15.51-1.22,1.82-3.95,1.21-3.95.91l-10-3.65a2.87,2.87,0,0,1-2.13-2.43c-.31-1.82,1.52-7.3,2.13-8.21.91.31,9.42,3.65,9.42,3.65l-.3,1.52c0,.3.3,1.22.91,1.22.3,0,1.21.3,1.21,0l1.83-5.17a1.36,1.36,0,0,0-.91-.91c-.31,0-1.22,0-1.22.3l-.61,1.82c-1.21-.3-2.13-.91-3.34-1.21-4.26-1.52-7-3-7.6-3a41.36,41.36,0,0,0-2.74,9.12,14.27,14.27,0,0,0-.91,2.73c-.61,2.13-1.52,6.09-2.13,9.73-.61,2.74-1.22,5.48-1.82,7.6A73.53,73.53,0,0,1,222,590.47a24.28,24.28,0,0,0-7.61,4.87,1.83,1.83,0,0,0-.3,1.21,1.8,1.8,0,0,0,1.22.31c3.34-3.35,9.42-5.48,9.73-5.48a23.53,23.53,0,0,1,20.06,5.17A36.82,36.82,0,0,0,229.3,627Z" transform="translate(-172.72 -529)"/><path d="M365.76,599.33c-10.4-5.81-23.24-4.89-35.17,2.75-10.7,6.73-19.27,17.13-19.57,17.13l-2.45,3.06-2.44-3.06s-8.57-10.4-19.27-17.13a38.32,38.32,0,0,0-20.49-6.42,30.7,30.7,0,0,0-14.68,3.67c-10.09,5.5-15.9,15.9-15.9,27.83,0,57.19,62.08,95.72,72.48,101.84,10.7-6.42,72.78-46.49,72.78-101.84C381.66,615.23,375.85,604.83,365.76,599.33Z" transform="translate(-172.72 -529)"/><path d="M448,612v.61l-.3.3c-.3.3-4.23,5.14-15.41,12.39a69,69,0,0,1-35.37,28.42,68,68,0,0,1-13.6,3.32,89.14,89.14,0,0,0,5.44-29.92,37.24,37.24,0,0,0-13.3-29,24.64,24.64,0,0,1,8.77-5.75,20.66,20.66,0,0,1,12.69-.9h0a22.17,22.17,0,0,1,9.37,5.44.94.94,0,0,0,.61.3.29.29,0,0,0,.3-.3.57.57,0,0,0,0-.91,24,24,0,0,0-7.56-4.83,72.07,72.07,0,0,1-4.53-11.79c-.61-2.12-1.21-4.84-1.82-7.56-.9-3.63-1.51-7.56-2.11-9.67-.3-.61-.91-2.72-.91-2.72a41.68,41.68,0,0,0-2.72-9.07,38.71,38.71,0,0,1-7.56,3,14.81,14.81,0,0,0-3.32,1.21l-.61-1.81c0-.3-.9-.3-1.2-.3a1.35,1.35,0,0,0-.91.9l1.81,5.14c0,.3.91.3,1.21.3a1.35,1.35,0,0,0,.91-1.21l-.91-1.81s7.86-2.42,9.67-3.63c.31.91,2.12,6.65,1.82,8.16s-1.82,2.12-2.12,2.42l-10,3.63c-.31,0-2.72.6-3.93-.91-.91-2.72-4.23-12.09-5.44-15.41,0,0-.91-3.63-1.21-2.72a5.71,5.71,0,0,0,0,3.32c1.51,3.93,3.32,8.77,4.83,13.3a4.29,4.29,0,0,1-4.53-.6c-.91-3-4.84-13-6.05-16.33,0,0-.9-3-1.21-2.11a3.56,3.56,0,0,0,0,2.72c1.52,4.53,3.63,9.67,5.14,13.9a4.44,4.44,0,0,1-5.14-2.72l-4.23-12.09c-1.81-4.83,2.12-6.65,2.12-6.65l26-9.07a9.48,9.48,0,0,1,7.56-.3c3.63,1.51,4.53,3.63,5.74,6.05v.3c1.21,2.42,2.12,4.84,3.33,6.35,1.37,1.71,5.87,8.11,12.15,11.66l5.33,3.75c2.89,2.36,6.07,4.28,7.91,5.75,3.63,2.41,9.67,8.46,14.21,14.51,3.62,5.13,6.34,11.48,8.16,19.64C448.3,603.79,448,611.35,448,612Z" transform="translate(-172.72 -529)"/></svg>